<svg width="1024" height="1024" viewBox="0 0 1024 1024" fill="none" xmlns="http://www.w3.org/2000/svg">
<g filter="url(#filter0_d_7_20)">
<rect x="100" y="100" width="824" height="824" rx="184" fill="url(#paint0_radial_7_20)"/>
</g>
<path d="M183.289 607.758H340.195C368.527 607.758 382.445 593.85 382.445 566.033V408.076C382.445 380.26 368.527 366.352 340.195 366.352H183.289C155.122 366.352 141.039 380.26 141.039 408.076V566.033C141.039 593.85 155.122 607.758 183.289 607.758ZM183.621 583.75C171.691 583.75 164.898 577.292 164.898 564.874V409.235C164.898 396.652 171.691 390.36 183.621 390.36H339.864C351.793 390.36 358.587 396.652 358.587 409.235V564.874C358.587 577.292 351.793 583.75 339.864 583.75H183.621Z" fill="white"/>
<path d="M219.078 548.151C224.214 548.151 228.025 545.668 230.345 538.879L238.96 512.884H284.359L293.14 538.879C295.294 545.668 299.105 548.151 304.407 548.151C311.034 548.151 315.342 544.012 315.342 538.051C315.342 535.733 314.845 533.581 313.685 530.435L278.228 434.402C275.411 426.786 269.612 422.812 261.494 422.812C253.541 422.812 248.073 426.786 245.091 434.402L209.799 530.435C208.639 533.581 208.142 535.733 208.142 538.051C208.142 544.012 212.45 548.151 219.078 548.151ZM244.759 495.333L260.997 447.317H262.488L278.56 495.333H244.759Z" fill="white"/>
<path d="M384.726 679.317L397.86 702.065L388.104 707.698C377.618 713.752 373.871 726.88 379.959 737.425C386.048 747.97 399.444 751.555 409.929 745.501C420.415 739.447 424.009 726.053 417.921 715.508L412.33 705.825L434.762 692.874L440.352 702.557C446.44 713.102 459.836 716.687 470.322 710.633C480.808 704.579 484.402 691.185 478.314 680.64C472.225 670.095 458.982 666.776 448.497 672.83L438.807 678.424L425.674 655.676L435.363 650.082C445.849 644.028 449.596 630.899 443.507 620.354C437.419 609.809 424.023 606.225 413.538 612.279C403.052 618.333 399.458 631.726 405.546 642.271L411.137 651.954L388.705 664.905L383.115 655.222C377.026 644.677 363.63 641.093 353.145 647.146C342.659 653.201 339.065 666.594 345.153 677.139C351.242 687.684 364.484 691.003 374.97 684.949L384.726 679.317ZM369.801 675.996C364.492 679.061 357.48 677.185 354.378 671.813C351.277 666.441 353.196 659.497 358.505 656.431C363.815 653.366 370.788 655.176 373.89 660.548L379.557 670.364L369.801 675.996ZM430.194 641.128L420.505 646.722L414.837 636.907C411.736 631.535 413.589 624.629 418.898 621.564C424.207 618.498 431.181 620.308 434.283 625.68C437.384 631.052 435.503 638.063 430.194 641.128ZM407.084 696.739L393.951 673.991L416.382 661.04L429.516 683.788L407.084 696.739ZM393.235 716.585L402.991 710.952L408.658 720.768C411.759 726.14 409.84 733.084 404.531 736.149C399.221 739.215 392.247 737.405 389.146 732.033C386.044 726.661 387.925 719.65 393.235 716.585ZM453.628 681.717C458.937 678.651 465.949 680.528 469.05 685.9C472.152 691.272 470.233 698.216 464.923 701.281C459.614 704.347 452.707 702.498 449.605 697.126L443.938 687.311L453.628 681.717Z" fill="white"/>
<path d="M521.837 550.286L495.463 565.513C492.078 567.467 490.894 571.442 492.767 574.686C494.639 577.93 498.714 578.962 502.099 577.008L525.653 563.409C527.557 562.31 529.344 562.312 531.249 563.657L612.739 623.046C617.856 626.862 622.644 627.012 628.004 623.918L654.519 608.609C657.833 606.695 659.047 602.61 657.215 599.436C655.383 596.263 651.197 595.201 647.883 597.114L624.4 610.672C622.213 611.934 620.426 611.932 618.521 610.587L537.173 551.117C532.552 547.673 526.844 547.395 521.837 550.286ZM596.094 507.414L561.892 527.16C558.507 529.115 557.353 532.978 559.226 536.222C561.098 539.466 565.062 540.468 568.447 538.514L602.649 518.767C606.034 516.813 607.148 512.879 605.275 509.635C603.402 506.392 599.479 505.46 596.094 507.414Z" fill="white"/>
<path d="M762.913 544.61L795.58 525.75C803.922 520.933 805.414 513.643 800.936 505.886L787.3 482.268L808.75 469.883C813.658 467.05 815.848 461.779 813.186 457.167C811.531 454.302 808.959 453.085 805.495 452.103L729.078 431.935C725.916 431.152 722.766 431.2 720.102 432.738C717.438 434.276 715.821 436.98 714.918 440.11L694.246 516.333C693.234 520.085 693.062 522.7 694.716 525.565C697.379 530.177 703.039 530.916 707.946 528.083L729.397 515.698L743.033 539.317C747.511 547.073 754.571 549.426 762.913 544.61ZM758.357 534.29C756.534 535.342 754.476 534.853 753.387 532.966L735.555 502.08C734.788 500.752 733.905 500.517 732.503 501.327L707.617 515.694C707.337 515.856 707.116 515.797 706.995 515.588C706.914 515.448 706.903 515.268 706.922 514.977L726.179 444.882C726.268 444.551 726.508 444.32 726.718 444.198C726.999 444.036 727.25 443.985 727.581 444.073L797.913 462.444C798.174 462.573 798.395 462.632 798.476 462.771C798.597 462.981 798.467 463.242 798.257 463.364L773.301 477.772C771.899 478.581 771.661 479.464 772.428 480.792L790.26 511.678C791.309 513.495 790.743 515.591 788.921 516.644L758.357 534.29Z" fill="white"/>
<path d="M573.953 326.875C572.762 324.812 570.687 323.383 568.078 322.764L491.784 302.4C489.175 301.78 486.866 302.113 484.896 303.25C480.769 305.633 479.367 310.57 481.804 314.791C482.941 316.761 484.735 318.352 486.9 318.853L507.59 324.793L555.813 335.098L555.118 329.996L529.138 342.619L440.588 393.743C436.18 396.288 434.925 401.265 437.471 405.674C440.016 410.082 444.953 411.484 449.362 408.939L537.911 357.815L561.834 341.627L557.816 338.568L542.575 385.389L537.375 406.277C536.726 408.402 537.207 410.751 538.344 412.721C540.781 416.942 545.757 418.196 549.885 415.813C551.855 414.676 553.297 412.843 554.065 410.273L574.576 334.02C575.344 331.45 575.145 328.939 573.953 326.875Z" fill="white"/>
<g clip-path="url(#clip0_7_20)">
<path d="M819.319 180.669V195.313H803.952V181.531C803.952 171.577 798.512 166.409 789.063 166.409H659.161C649.616 166.409 644.367 171.577 644.367 181.531V270.156C644.367 280.11 649.807 285.183 659.161 285.183H676.15V300.592H658.97C638.926 300.592 629 290.734 629 270.922V180.669C629 160.954 638.926 151 658.97 151H789.348C809.201 151 819.319 160.954 819.319 180.669Z" fill="white"/>
<path d="M706.12 344.905H836.499C856.351 344.905 866.469 334.951 866.469 315.235V224.982C866.469 205.266 856.351 195.313 836.499 195.313H706.12C686.076 195.313 676.15 205.266 676.15 224.982V315.235C676.15 335.047 686.076 344.905 706.12 344.905ZM706.406 228.045C701.73 228.045 697.912 223.93 697.912 219.527C697.912 214.933 701.73 210.913 706.406 210.913C711.083 210.913 714.901 214.933 714.901 219.527C714.901 223.93 711.083 228.045 706.406 228.045ZM733.8 228.045C729.122 228.045 725.305 224.025 725.305 219.527C725.305 214.933 729.122 210.913 733.8 210.913C738.476 210.913 742.294 214.933 742.294 219.527C742.294 224.025 738.476 228.045 733.8 228.045ZM761.192 228.045C756.516 228.045 752.697 224.025 752.697 219.527C752.697 214.933 756.516 210.913 761.192 210.913C765.869 210.913 769.686 214.933 769.686 219.527C769.686 224.025 765.869 228.045 761.192 228.045ZM706.311 329.496C696.766 329.496 691.517 324.423 691.517 314.469V243.645H851.102V314.469C851.102 324.423 845.662 329.496 836.213 329.496H706.311Z" fill="white"/>
</g>
<mask id="mask0_7_20" style="mask-type:alpha" maskUnits="userSpaceOnUse" x="100" y="100" width="824" height="824">
<rect x="100" y="100" width="824" height="824" rx="184" fill="url(#paint1_radial_7_20)"/>
</mask>
<g mask="url(#mask0_7_20)">
<path d="M612.651 1101.97L1021.8 865.744C1058.45 844.582 1066.44 813.431 1045.65 777.428L924.673 567.891C903.898 531.908 872.93 523.244 836.277 544.405L427.127 780.628C390.455 801.801 382.189 832.413 403.269 868.924L524.245 1078.46C545.325 1114.97 575.979 1123.14 612.651 1101.97ZM606.032 1089.24C576.867 1106.08 553.158 1099.79 536.323 1070.63L416.1 862.398C399.265 833.24 405.677 809.564 434.842 792.726L842.896 557.136C871.041 540.886 895.77 546.582 912.605 575.741L1032.83 783.974C1049.66 813.133 1042.23 837.397 1014.09 853.646L606.032 1089.24ZM511.413 875.201L527.126 866.129C532.901 862.795 534.185 857.968 530.86 852.209L521.814 836.541C518.489 830.782 513.667 829.481 507.892 832.815L492.179 841.887C486.404 845.221 485.101 850.059 488.425 855.818L497.472 871.486C500.796 877.245 505.638 878.535 511.413 875.201ZM580.481 835.324L596.194 826.252C601.969 822.918 603.253 818.091 599.928 812.333L590.882 796.664C587.557 790.906 582.735 789.604 576.96 792.939L561.248 802.01C555.473 805.344 554.169 810.182 557.494 815.941L566.54 831.61C569.865 837.368 574.706 838.658 580.481 835.324ZM649.549 795.448L665.263 786.375C671.037 783.041 672.321 778.215 668.997 772.456L659.95 756.788C656.626 751.029 651.804 749.728 646.029 753.062L630.315 762.134C624.541 765.468 623.237 770.306 626.562 776.064L635.608 791.733C638.933 797.491 643.774 798.782 649.549 795.448ZM718.617 755.571L734.331 746.499C740.106 743.165 741.39 738.338 738.065 732.58L729.019 716.911C725.694 711.152 720.872 709.851 715.097 713.185L699.384 722.257C693.609 725.591 692.306 730.429 695.631 736.188L704.677 751.856C708.002 757.615 712.843 758.905 718.617 755.571ZM787.686 715.694L803.399 706.622C809.174 703.288 810.458 698.461 807.134 692.703L798.087 677.034C794.763 671.276 789.941 669.974 784.165 673.309L768.452 682.381C762.677 685.715 761.374 690.553 764.698 696.311L773.745 711.98C777.069 717.738 781.911 719.028 787.686 715.694ZM856.754 675.818L872.467 666.746C878.242 663.412 879.527 658.585 876.202 652.826L867.156 637.158C863.831 631.399 859.008 630.098 853.234 633.432L837.521 642.504C831.746 645.838 830.442 650.676 833.767 656.435L842.813 672.103C846.138 677.862 850.98 679.152 856.754 675.818ZM551.177 944.074L566.89 935.002C572.665 931.668 573.949 926.841 570.625 921.083L561.578 905.414C558.254 899.656 553.431 898.355 547.656 901.689L531.943 910.761C526.168 914.095 524.865 918.933 528.189 924.691L537.236 940.36C540.56 946.118 545.402 947.408 551.177 944.074ZM620.245 904.198L635.958 895.126C641.733 891.792 643.017 886.965 639.692 881.206L630.646 865.538C627.321 859.779 622.499 858.478 616.725 861.812L601.012 870.884C595.237 874.218 593.933 879.056 597.258 884.815L606.304 900.483C609.629 906.242 614.47 907.532 620.245 904.198ZM689.313 864.321L705.027 855.249C710.802 851.915 712.086 847.088 708.761 841.33L699.715 825.661C696.39 819.903 691.568 818.601 685.793 821.935L670.08 831.008C664.305 834.342 663.002 839.179 666.326 844.938L675.373 860.606C678.697 866.365 683.538 867.655 689.313 864.321ZM758.382 824.445L774.095 815.372C779.87 812.038 781.154 807.212 777.829 801.453L768.783 785.784C765.458 780.026 760.636 778.725 754.861 782.059L739.148 791.131C733.373 794.465 732.07 799.303 735.395 805.061L744.441 820.73C747.766 826.488 752.607 827.779 758.382 824.445ZM827.45 784.568L843.163 775.496C848.938 772.162 850.222 767.335 846.898 761.576L837.851 745.908C834.527 740.149 829.705 738.848 823.929 742.182L808.216 751.254C802.442 754.588 801.138 759.426 804.463 765.185L813.509 780.853C816.834 786.612 821.675 787.902 827.45 784.568ZM896.519 744.691L912.231 735.619C918.006 732.285 919.291 727.458 915.966 721.7L906.92 706.031C903.595 700.273 898.773 698.972 892.998 702.306L877.285 711.378C871.51 714.712 870.206 719.55 873.531 725.308L882.577 740.977C885.902 746.735 890.744 748.025 896.519 744.691ZM590.941 1012.95L606.654 1003.88C612.429 1000.54 613.713 995.715 610.389 989.956L601.342 974.288C598.018 968.529 593.195 967.228 587.42 970.562L571.707 979.634C565.933 982.968 564.629 987.806 567.954 993.565L577 1009.23C580.325 1014.99 585.166 1016.28 590.941 1012.95ZM660.182 972.972L882.736 844.48C888.645 841.068 889.953 836.151 886.562 830.278L877.726 814.972C874.324 809.08 869.411 807.755 863.502 811.166L640.948 939.658C635.058 943.059 633.73 947.987 637.132 953.879L645.969 969.184C649.36 975.058 654.292 976.372 660.182 972.972ZM936.283 813.565L951.996 804.493C957.77 801.159 959.055 796.332 955.73 790.573L946.684 774.905C943.359 769.146 938.537 767.845 932.762 771.179L917.049 780.251C911.274 783.585 909.971 788.423 913.295 794.182L922.341 809.85C925.666 815.609 930.508 816.899 936.283 813.565Z" fill="white"/>
</g>
<defs>
<filter id="filter0_d_7_20" x="78" y="89" width="868" height="868" filterUnits="userSpaceOnUse" color-interpolation-filters="sRGB">
<feFlood flood-opacity="0" result="BackgroundImageFix"/>
<feColorMatrix in="SourceAlpha" type="matrix" values="0 0 0 0 0 0 0 0 0 0 0 0 0 0 0 0 0 0 127 0" result="hardAlpha"/>
<feOffset dy="11"/>
<feGaussianBlur stdDeviation="11"/>
<feComposite in2="hardAlpha" operator="out"/>
<feColorMatrix type="matrix" values="0 0 0 0 0 0 0 0 0 0 0 0 0 0 0 0 0 0 0.28 0"/>
<feBlend mode="normal" in2="BackgroundImageFix" result="effect1_dropShadow_7_20"/>
<feBlend mode="normal" in="SourceGraphic" in2="effect1_dropShadow_7_20" result="shape"/>
</filter>
<radialGradient id="paint0_radial_7_20" cx="0" cy="0" r="1" gradientUnits="userSpaceOnUse" gradientTransform="translate(924 943.312) rotate(-134.336) scale(1179.05)">
<stop stop-color="#72C1FD"/>
<stop offset="1" stop-color="#1E90FF"/>
</radialGradient>
<radialGradient id="paint1_radial_7_20" cx="0" cy="0" r="1" gradientUnits="userSpaceOnUse" gradientTransform="translate(924 943.312) rotate(-134.336) scale(1179.05)">
<stop stop-color="#72C1FD"/>
<stop offset="1" stop-color="#1E90FF"/>
</radialGradient>
<clipPath id="clip0_7_20">
<rect width="241" height="194" fill="white" transform="translate(629 151)"/>
</clipPath>
</defs>
</svg>
