<?xml version="1.0" encoding="UTF-8"?>
<!--Generator: Apple Native CoreSVG 341-->
<!DOCTYPE svg
PUBLIC "-//W3C//DTD SVG 1.1//EN"
       "http://www.w3.org/Graphics/SVG/1.1/DTD/svg11.dtd">
<svg version="1.1" xmlns="http://www.w3.org/2000/svg" xmlns:xlink="http://www.w3.org/1999/xlink" viewBox="0 0 3300 2200">
 <!--glyph: "", point size: 100.0, font version: "20.0d10e1", template writer version: "138.0.0"-->
 <style>.monochrome-0 {-sfsymbols-motion-group:1;-sfsymbols-layer-tags:-24f075f37d315692 -4e8e6beab4eaa820 keyboard.macwindow}
.monochrome-1 {opacity:0.0;-sfsymbols-clear-behind:true;-sfsymbols-motion-group:0;-sfsymbols-layer-tags:-24f075f37d315692 _slash}
.monochrome-2 {-sfsymbols-motion-group:0;-sfsymbols-layer-tags:-24f075f37d315692 _slash}

.multicolor-0:tintColor {-sfsymbols-motion-group:1;-sfsymbols-layer-tags:-24f075f37d315692 -4e8e6beab4eaa820 keyboard.macwindow}
.multicolor-1:tintColor {opacity:0.0;-sfsymbols-clear-behind:true;-sfsymbols-motion-group:0;-sfsymbols-layer-tags:-24f075f37d315692 _slash}
.multicolor-2:tintColor {-sfsymbols-motion-group:0;-sfsymbols-layer-tags:-24f075f37d315692 _slash}

.hierarchical-0:secondary {-sfsymbols-motion-group:1;-sfsymbols-layer-tags:-24f075f37d315692 -4e8e6beab4eaa820 keyboard.macwindow}
.hierarchical-1:primary {opacity:0.0;-sfsymbols-clear-behind:true;-sfsymbols-motion-group:0;-sfsymbols-layer-tags:-24f075f37d315692 _slash}
.hierarchical-2:primary {-sfsymbols-motion-group:0;-sfsymbols-layer-tags:-24f075f37d315692 _slash}

.SFSymbolsPreviewWireframe {fill:none;opacity:1.0;stroke:black;stroke-width:0.5}
</style>
 <g id="Notes">
  <rect height="2200" id="artboard" style="fill:white;opacity:1" width="3300" x="0" y="0"/>
  <line style="fill:none;stroke:black;opacity:1;stroke-width:0.5;" x1="263" x2="3036" y1="292" y2="292"/>
  <text style="stroke:none;fill:black;font-family:sans-serif;font-size:13;font-weight:bold;" transform="matrix(1 0 0 1 263 322)">Weight/Scale Variations</text>
  <text style="stroke:none;fill:black;font-family:sans-serif;font-size:13;text-anchor:middle;" transform="matrix(1 0 0 1 559.711 322)">Ultralight</text>
  <text style="stroke:none;fill:black;font-family:sans-serif;font-size:13;text-anchor:middle;" transform="matrix(1 0 0 1 856.422 322)">Thin</text>
  <text style="stroke:none;fill:black;font-family:sans-serif;font-size:13;text-anchor:middle;" transform="matrix(1 0 0 1 1153.13 322)">Light</text>
  <text style="stroke:none;fill:black;font-family:sans-serif;font-size:13;text-anchor:middle;" transform="matrix(1 0 0 1 1449.84 322)">Regular</text>
  <text style="stroke:none;fill:black;font-family:sans-serif;font-size:13;text-anchor:middle;" transform="matrix(1 0 0 1 1746.56 322)">Medium</text>
  <text style="stroke:none;fill:black;font-family:sans-serif;font-size:13;text-anchor:middle;" transform="matrix(1 0 0 1 2043.27 322)">Semibold</text>
  <text style="stroke:none;fill:black;font-family:sans-serif;font-size:13;text-anchor:middle;" transform="matrix(1 0 0 1 2339.98 322)">Bold</text>
  <text style="stroke:none;fill:black;font-family:sans-serif;font-size:13;text-anchor:middle;" transform="matrix(1 0 0 1 2636.69 322)">Heavy</text>
  <text style="stroke:none;fill:black;font-family:sans-serif;font-size:13;text-anchor:middle;" transform="matrix(1 0 0 1 2933.4 322)">Black</text>
  <line style="fill:none;stroke:black;opacity:1;stroke-width:0.5;" x1="263" x2="3036" y1="1903" y2="1903"/>
  <g transform="matrix(0.2 0 0 0.2 263 1933)">
   <path d="m46.2402 4.15039c21.7773 0 39.4531-17.627 39.4531-39.4043s-17.6758-39.4043-39.4531-39.4043c-21.7285 0-39.4043 17.627-39.4043 39.4043s17.6758 39.4043 39.4043 39.4043Zm0-7.42188c-17.6758 0-31.9336-14.3066-31.9336-31.9824s14.2578-31.9824 31.9336-31.9824 31.9824 14.3066 31.9824 31.9824-14.3066 31.9824-31.9824 31.9824Zm-17.9688-31.9824c0 2.14844 1.51367 3.61328 3.75977 3.61328h10.498v10.5957c0 2.19727 1.46484 3.71094 3.61328 3.71094 2.24609 0 3.71094-1.51367 3.71094-3.71094v-10.5957h10.5957c2.19727 0 3.71094-1.46484 3.71094-3.61328 0-2.19727-1.51367-3.71094-3.71094-3.71094h-10.5957v-10.5469c0-2.24609-1.46484-3.75977-3.71094-3.75977-2.14844 0-3.61328 1.51367-3.61328 3.75977v10.5469h-10.498c-2.24609 0-3.75977 1.51367-3.75977 3.71094Z"/>
  </g>
  <g transform="matrix(0.2 0 0 0.2 281.506 1933)">
   <path d="m58.5449 14.5508c27.4902 0 49.8047-22.3145 49.8047-49.8047s-22.3145-49.8047-49.8047-49.8047-49.8047 22.3145-49.8047 49.8047 22.3145 49.8047 49.8047 49.8047Zm0-8.30078c-22.9492 0-41.5039-18.5547-41.5039-41.5039s18.5547-41.5039 41.5039-41.5039 41.5039 18.5547 41.5039 41.5039-18.5547 41.5039-41.5039 41.5039Zm-22.6562-41.5039c0 2.39258 1.66016 4.00391 4.15039 4.00391h14.3555v14.4043c0 2.44141 1.66016 4.15039 4.05273 4.15039 2.44141 0 4.15039-1.66016 4.15039-4.15039v-14.4043h14.4043c2.44141 0 4.15039-1.61133 4.15039-4.00391 0-2.44141-1.70898-4.15039-4.15039-4.15039h-14.4043v-14.3555c0-2.49023-1.70898-4.19922-4.15039-4.19922-2.39258 0-4.05273 1.70898-4.05273 4.19922v14.3555h-14.3555c-2.49023 0-4.15039 1.70898-4.15039 4.15039Z"/>
  </g>
  <g transform="matrix(0.2 0 0 0.2 304.924 1933)">
   <path d="m74.8535 28.3203c35.1074 0 63.623-28.4668 63.623-63.5742s-28.5156-63.623-63.623-63.623-63.5742 28.5156-63.5742 63.623 28.4668 63.5742 63.5742 63.5742Zm0-9.08203c-30.127 0-54.4922-24.3652-54.4922-54.4922s24.3652-54.4922 54.4922-54.4922 54.4922 24.3652 54.4922 54.4922-24.3652 54.4922-54.4922 54.4922Zm-28.8574-54.4922c0 2.58789 1.85547 4.39453 4.58984 4.39453h19.7266v19.7754c0 2.68555 1.85547 4.58984 4.44336 4.58984 2.68555 0 4.54102-1.85547 4.54102-4.58984v-19.7754h19.7754c2.68555 0 4.58984-1.80664 4.58984-4.39453 0-2.73438-1.85547-4.58984-4.58984-4.58984h-19.7754v-19.7266c0-2.73438-1.85547-4.63867-4.54102-4.63867-2.58789 0-4.44336 1.9043-4.44336 4.63867v19.7266h-19.7266c-2.73438 0-4.58984 1.85547-4.58984 4.58984Z"/>
  </g>
  <text style="stroke:none;fill:black;font-family:sans-serif;font-size:13;font-weight:bold;" transform="matrix(1 0 0 1 263 1953)">Design Variations</text>
  <text style="stroke:none;fill:black;font-family:sans-serif;font-size:13;" transform="matrix(1 0 0 1 263 1971)">Symbols are supported in up to nine weights and three scales.</text>
  <text style="stroke:none;fill:black;font-family:sans-serif;font-size:13;" transform="matrix(1 0 0 1 263 1989)">For optimal layout with text and other symbols, vertically align</text>
  <text style="stroke:none;fill:black;font-family:sans-serif;font-size:13;" transform="matrix(1 0 0 1 263 2007)">symbols with the adjacent text.</text>
  <line style="fill:none;stroke:#00AEEF;stroke-width:0.5;opacity:1.0;" x1="776" x2="776" y1="1919" y2="1933"/>
  <g transform="matrix(0.2 0 0 0.2 776 1933)">
   <path d="m16.5527 0.78125c2.58789 0 3.85742-0.976562 4.78516-3.71094l6.29883-17.2363h28.8086l6.29883 17.2363c0.927734 2.73438 2.19727 3.71094 4.73633 3.71094 2.58789 0 4.24805-1.5625 4.24805-4.00391 0-0.830078-0.146484-1.61133-0.537109-2.63672l-22.9004-60.9863c-1.12305-2.97852-3.125-4.49219-6.25-4.49219-3.02734 0-5.07812 1.46484-6.15234 4.44336l-22.9004 61.084c-0.390625 1.02539-0.537109 1.80664-0.537109 2.63672 0 2.44141 1.5625 3.95508 4.10156 3.95508Zm13.4766-28.3691 11.8652-32.8613h0.244141l11.8652 32.8613Z"/>
  </g>
  <line style="fill:none;stroke:#00AEEF;stroke-width:0.5;opacity:1.0;" x1="792.836" x2="792.836" y1="1919" y2="1933"/>
  <text style="stroke:none;fill:black;font-family:sans-serif;font-size:13;font-weight:bold;" transform="matrix(1 0 0 1 776 1953)">Margins</text>
  <text style="stroke:none;fill:black;font-family:sans-serif;font-size:13;" transform="matrix(1 0 0 1 776 1971)">Leading and trailing margins on the left and right side of each symbol</text>
  <text style="stroke:none;fill:black;font-family:sans-serif;font-size:13;" transform="matrix(1 0 0 1 776 1989)">can be adjusted by modifying the x-location of the margin guidelines.</text>
  <text style="stroke:none;fill:black;font-family:sans-serif;font-size:13;" transform="matrix(1 0 0 1 776 2007)">Modifications are automatically applied proportionally to all</text>
  <text style="stroke:none;fill:black;font-family:sans-serif;font-size:13;" transform="matrix(1 0 0 1 776 2025)">scales and weights.</text>
  <g transform="matrix(0.2 0 0 0.2 1289 1933)">
   <path d="m14.209 9.32617 8.49609 8.54492c4.29688 4.3457 9.22852 4.05273 13.8672-1.07422l53.4668-58.9355-4.83398-4.88281-53.0762 58.3984c-1.75781 2.00195-3.41797 2.49023-5.76172 0.146484l-5.85938-5.81055c-2.34375-2.29492-1.80664-4.00391 0.195312-5.81055l57.373-54.0039-4.88281-4.83398-57.959 54.4434c-4.93164 4.58984-5.32227 9.47266-1.02539 13.8184Zm32.0801-90.9668c-2.09961 2.05078-2.24609 4.93164-1.07422 6.88477 1.17188 1.80664 3.4668 2.97852 6.68945 2.14844 7.32422-1.70898 14.9414-2.00195 22.0703 2.68555l-2.92969 7.27539c-1.70898 4.15039-0.830078 7.08008 1.85547 9.81445l11.4746 11.5723c2.44141 2.44141 4.49219 2.53906 7.32422 2.05078l5.32227-0.976562 3.32031 3.36914-0.195312 2.7832c-0.195312 2.49023 0.439453 4.39453 2.88086 6.78711l3.80859 3.71094c2.39258 2.39258 5.46875 2.53906 7.8125 0.195312l14.5508-14.5996c2.34375-2.34375 2.24609-5.32227-0.146484-7.71484l-3.85742-3.80859c-2.39258-2.39258-4.24805-3.17383-6.64062-2.97852l-2.88086 0.244141-3.22266-3.17383 1.2207-5.61523c0.634766-2.83203-0.146484-5.0293-3.07617-7.95898l-10.9863-10.9375c-16.6992-16.6016-38.8672-16.2109-53.3203-1.75781Zm7.4707 1.85547c12.1582-8.88672 28.6133-7.37305 39.7461 3.75977l12.1582 12.0605c1.17188 1.17188 1.36719 2.09961 1.02539 3.80859l-1.61133 7.42188 7.51953 7.42188 4.93164-0.292969c1.26953-0.0488281 1.66016 0.0488281 2.63672 1.02539l2.88086 2.88086-12.207 12.207-2.88086-2.88086c-0.976562-0.976562-1.12305-1.36719-1.07422-2.68555l0.341797-4.88281-7.4707-7.42188-7.61719 1.26953c-1.61133 0.341797-2.34375 0.195312-3.56445-0.976562l-10.0098-10.0098c-1.26953-1.17188-1.41602-2.00195-0.634766-3.85742l4.39453-10.4492c-7.8125-7.27539-17.9688-10.4004-28.125-7.42188-0.78125 0.195312-1.07422-0.439453-0.439453-0.976562Z"/>
  </g>
  <text style="stroke:none;fill:black;font-family:sans-serif;font-size:13;font-weight:bold;" transform="matrix(1 0 0 1 1289 1953)">Exporting</text>
  <text style="stroke:none;fill:black;font-family:sans-serif;font-size:13;" transform="matrix(1 0 0 1 1289 1971)">Symbols should be outlined when exporting to ensure the</text>
  <text style="stroke:none;fill:black;font-family:sans-serif;font-size:13;" transform="matrix(1 0 0 1 1289 1989)">design is preserved when submitting to Xcode.</text>
  <text id="template-version" style="stroke:none;fill:black;font-family:sans-serif;font-size:13;text-anchor:end;" transform="matrix(1 0 0 1 3036 1933)">Template v.6.0</text>
  <text style="stroke:none;fill:black;font-family:sans-serif;font-size:13;text-anchor:end;" transform="matrix(1 0 0 1 3036 1951)">Requires Xcode 16 or greater</text>
  <text id="descriptive-name" style="stroke:none;fill:black;font-family:sans-serif;font-size:13;text-anchor:end;" transform="matrix(1 0 0 1 3036 1969)">Generated from </text>
  <text style="stroke:none;fill:black;font-family:sans-serif;font-size:13;text-anchor:end;" transform="matrix(1 0 0 1 3036 1987)">Typeset at 100.0 points</text>
  <text style="stroke:none;fill:black;font-family:sans-serif;font-size:13;" transform="matrix(1 0 0 1 263 726)">Small</text>
  <text style="stroke:none;fill:black;font-family:sans-serif;font-size:13;" transform="matrix(1 0 0 1 263 1156)">Medium</text>
  <text style="stroke:none;fill:black;font-family:sans-serif;font-size:13;" transform="matrix(1 0 0 1 263 1586)">Large</text>
 </g>
 <g id="Guides">
  <g id="H-reference" style="fill:#27AAE1;stroke:none;" transform="matrix(1 0 0 1 339 696)">
   <path d="M0.993654 0L3.63775 0L29.3281-67.1323L30.0303-67.1323L30.0303-70.459L28.1226-70.459ZM11.6885-24.4799L46.9815-24.4799L46.2315-26.7285L12.4385-26.7285ZM55.1196 0L57.7637 0L30.6382-70.459L29.4326-70.459L29.4326-67.1323Z"/>
  </g>
  <line id="Baseline-S" style="fill:none;stroke:#27AAE1;opacity:1;stroke-width:0.5;" x1="263" x2="3036" y1="696" y2="696"/>
  <line id="Capline-S" style="fill:none;stroke:#27AAE1;opacity:1;stroke-width:0.5;" x1="263" x2="3036" y1="625.541" y2="625.541"/>
  <g id="H-reference" style="fill:#27AAE1;stroke:none;" transform="matrix(1 0 0 1 339 1126)">
   <path d="M0.993654 0L3.63775 0L29.3281-67.1323L30.0303-67.1323L30.0303-70.459L28.1226-70.459ZM11.6885-24.4799L46.9815-24.4799L46.2315-26.7285L12.4385-26.7285ZM55.1196 0L57.7637 0L30.6382-70.459L29.4326-70.459L29.4326-67.1323Z"/>
  </g>
  <line id="Baseline-M" style="fill:none;stroke:#27AAE1;opacity:1;stroke-width:0.5;" x1="263" x2="3036" y1="1126" y2="1126"/>
  <line id="Capline-M" style="fill:none;stroke:#27AAE1;opacity:1;stroke-width:0.5;" x1="263" x2="3036" y1="1055.54" y2="1055.54"/>
  <g id="H-reference" style="fill:#27AAE1;stroke:none;" transform="matrix(1 0 0 1 339 1556)">
   <path d="M0.993654 0L3.63775 0L29.3281-67.1323L30.0303-67.1323L30.0303-70.459L28.1226-70.459ZM11.6885-24.4799L46.9815-24.4799L46.2315-26.7285L12.4385-26.7285ZM55.1196 0L57.7637 0L30.6382-70.459L29.4326-70.459L29.4326-67.1323Z"/>
  </g>
  <line id="Baseline-L" style="fill:none;stroke:#27AAE1;opacity:1;stroke-width:0.5;" x1="263" x2="3036" y1="1556" y2="1556"/>
  <line id="Capline-L" style="fill:none;stroke:#27AAE1;opacity:1;stroke-width:0.5;" x1="263" x2="3036" y1="1485.54" y2="1485.54"/>
  <line id="right-margin-Black-S" style="fill:none;stroke:#00AEEF;stroke-width:0.5;opacity:1.0;" x1="2989.45" x2="2989.45" y1="600.785" y2="720.121"/>
  <line id="left-margin-Black-S" style="fill:none;stroke:#00AEEF;stroke-width:0.5;opacity:1.0;" x1="2877.35" x2="2877.35" y1="600.785" y2="720.121"/>
  <line id="right-margin-Regular-S" style="fill:none;stroke:#00AEEF;stroke-width:0.5;opacity:1.0;" x1="1504.9" x2="1504.9" y1="600.785" y2="720.121"/>
  <line id="left-margin-Regular-S" style="fill:none;stroke:#00AEEF;stroke-width:0.5;opacity:1.0;" x1="1394.79" x2="1394.79" y1="600.785" y2="720.121"/>
  <line id="right-margin-Ultralight-S" style="fill:none;stroke:#00AEEF;stroke-width:0.5;opacity:1.0;" x1="613.72" x2="613.72" y1="600.785" y2="720.121"/>
  <line id="left-margin-Ultralight-S" style="fill:none;stroke:#00AEEF;stroke-width:0.5;opacity:1.0;" x1="505.702" x2="505.702" y1="600.785" y2="720.121"/>
 </g>
 <g id="Symbols">
  <g id="Black-S" transform="matrix(1 0 0 1 2877.35 696)">
   <path class="monochrome-0 multicolor-0:tintColor hierarchical-0:secondary SFSymbolsPreviewWireframe" d="M30.7617-37.6465L33.7891-37.6465C34.9609-37.6465 35.6445-38.2812 35.6445-39.4531L35.6445-42.5781C35.6445-43.75 34.9609-44.3848 33.7891-44.3848L30.7617-44.3848C29.4922-44.3848 28.8574-43.75 28.8574-42.5781L28.8574-39.4531C28.8574-38.2812 29.4922-37.6465 30.7617-37.6465ZM40.2344-37.6465L43.3105-37.6465C44.4824-37.6465 45.166-38.2812 45.166-39.4531L45.166-42.5781C45.166-43.75 44.4824-44.3848 43.3105-44.3848L40.2344-44.3848C39.0625-44.3848 38.3789-43.75 38.3789-42.5781L38.3789-39.4531C38.3789-38.2812 39.0625-37.6465 40.2344-37.6465ZM49.7559-37.6465L52.8809-37.6465C54.0039-37.6465 54.6875-38.2812 54.6875-39.4531L54.6875-42.5781C54.6875-43.75 54.0039-44.3848 52.8809-44.3848L49.7559-44.3848C48.584-44.3848 47.9004-43.75 47.9004-42.5781L47.9004-39.4531C47.9004-38.2812 48.584-37.6465 49.7559-37.6465ZM59.2773-37.6465L62.4023-37.6465C63.5742-37.6465 64.2578-38.2812 64.2578-39.4531L64.2578-42.5781C64.2578-43.75 63.5742-44.3848 62.4023-44.3848L59.2773-44.3848C58.1543-44.3848 57.4707-43.75 57.4707-42.5781L57.4707-39.4531C57.4707-38.2812 58.1543-37.6465 59.2773-37.6465ZM69.2383-37.6465L71.9238-37.6465C73.0957-37.6465 73.7793-38.2812 73.7793-39.4531L73.7793-42.5781C73.7793-43.75 73.0957-44.3848 71.9238-44.3848L69.2383-44.3848C67.8223-44.3848 66.9922-43.75 66.9922-42.5781L66.9922-39.4531C66.9922-38.2812 67.8223-37.6465 69.2383-37.6465ZM78.3691-37.6465L81.3965-37.6465C82.666-37.6465 83.3008-38.2812 83.3008-39.4531L83.3008-42.5781C83.3008-43.75 82.666-44.3848 81.3965-44.3848L78.3691-44.3848C77.1973-44.3848 76.5137-43.75 76.5137-42.5781L76.5137-39.4531C76.5137-38.2812 77.1973-37.6465 78.3691-37.6465ZM30.7617-27.6855L33.7891-27.6855C34.9609-27.6855 35.6445-28.3203 35.6445-29.4922L35.6445-32.6172C35.6445-33.7891 34.9609-34.4238 33.7891-34.4238L30.7617-34.4238C29.4922-34.4238 28.8574-33.7891 28.8574-32.6172L28.8574-29.4922C28.8574-28.3203 29.4922-27.6855 30.7617-27.6855ZM40.2344-27.6855L43.3105-27.6855C44.4824-27.6855 45.166-28.3203 45.166-29.4922L45.166-32.6172C45.166-33.7891 44.4824-34.4238 43.3105-34.4238L40.2344-34.4238C39.0625-34.4238 38.3789-33.7891 38.3789-32.6172L38.3789-29.4922C38.3789-28.3203 39.0625-27.6855 40.2344-27.6855ZM49.7559-27.6855L52.8809-27.6855C54.0039-27.6855 54.6875-28.3203 54.6875-29.4922L54.6875-32.6172C54.6875-33.7891 54.0039-34.4238 52.8809-34.4238L49.7559-34.4238C48.584-34.4238 47.9004-33.7891 47.9004-32.6172L47.9004-29.4922C47.9004-28.3203 48.584-27.6855 49.7559-27.6855ZM59.2773-27.6855L62.4023-27.6855C63.5742-27.6855 64.2578-28.3203 64.2578-29.4922L64.2578-32.6172C64.2578-33.7891 63.5742-34.4238 62.4023-34.4238L59.2773-34.4238C58.1543-34.4238 57.4707-33.7891 57.4707-32.6172L57.4707-29.4922C57.4707-28.3203 58.1543-27.6855 59.2773-27.6855ZM69.2383-27.6855L71.9238-27.6855C73.0957-27.6855 73.7793-28.3203 73.7793-29.4922L73.7793-32.6172C73.7793-33.7891 73.0957-34.4238 71.9238-34.4238L69.2383-34.4238C67.8223-34.4238 66.9922-33.7891 66.9922-32.6172L66.9922-29.4922C66.9922-28.3203 67.8223-27.6855 69.2383-27.6855ZM78.3691-27.6855L81.3965-27.6855C82.666-27.6855 83.3008-28.3203 83.3008-29.4922L83.3008-32.6172C83.3008-33.7891 82.666-34.4238 81.3965-34.4238L78.3691-34.4238C77.1973-34.4238 76.5137-33.7891 76.5137-32.6172L76.5137-29.4922C76.5137-28.3203 77.1973-27.6855 78.3691-27.6855ZM30.7617-17.7246L33.7891-17.7246C34.9609-17.7246 35.6445-18.3594 35.6445-19.5312L35.6445-22.6562C35.6445-23.8281 34.9609-24.4629 33.7891-24.4629L30.7617-24.4629C29.4922-24.4629 28.8574-23.8281 28.8574-22.6562L28.8574-19.5312C28.8574-18.3594 29.4922-17.7246 30.7617-17.7246ZM40.2344-17.7246L71.9238-17.7246C73.0957-17.7246 73.7793-18.3594 73.7793-19.5312L73.7793-22.6562C73.7793-23.8281 73.0957-24.4629 71.9238-24.4629L40.2344-24.4629C39.0625-24.4629 38.3789-23.8281 38.3789-22.6562L38.3789-19.5312C38.3789-18.3594 39.0625-17.7246 40.2344-17.7246ZM78.3691-17.7246L81.3965-17.7246C82.666-17.7246 83.3008-18.3594 83.3008-19.5312L83.3008-22.6562C83.3008-23.8281 82.666-24.4629 81.3965-24.4629L78.3691-24.4629C77.1973-24.4629 76.5137-23.8281 76.5137-22.6562L76.5137-19.5312C76.5137-18.3594 77.1973-17.7246 78.3691-17.7246ZM9.76562-12.3047C9.76562-2.73438 15.4297 2.92969 25 2.92969L87.1094 2.92969C96.6797 2.92969 102.344-2.73438 102.344-12.3047L102.344-58.1055C102.344-67.6758 96.6797-73.3398 87.1094-73.3398L25-73.3398C15.4297-73.3398 9.76562-67.6758 9.76562-58.1055ZM28.4668-57.8613C26.0742-57.8613 24.1699-59.7656 24.1699-62.1582C24.1699-64.502 26.0742-66.4062 28.4668-66.4062C30.8105-66.4062 32.7148-64.502 32.7148-62.1582C32.7148-59.7656 30.8105-57.8613 28.4668-57.8613ZM41.1621-57.8613C38.7695-57.8613 36.8652-59.7656 36.8652-62.1582C36.8652-64.502 38.7695-66.4062 41.1621-66.4062C43.5059-66.4062 45.4102-64.502 45.4102-62.1582C45.4102-59.7656 43.5059-57.8613 41.1621-57.8613ZM53.8574-57.8613C51.4648-57.8613 49.5605-59.7656 49.5605-62.1582C49.5605-64.502 51.4648-66.4062 53.8574-66.4062C56.2012-66.4062 58.1055-64.502 58.1055-62.1582C58.1055-59.7656 56.2012-57.8613 53.8574-57.8613ZM23.9258-14.5508L23.9258-50.8789L88.1836-50.8789L88.1836-14.5508C88.1836-12.1094 87.1094-11.2305 84.8633-11.2305L27.2461-11.2305C25-11.2305 23.9258-12.1094 23.9258-14.5508Z"/>
   <path class="monochrome-1 multicolor-1:tintColor hierarchical-1:primary SFSymbolsPreviewWireframe" d="M100.022-4.48836C103.673-0.837264 103.673 5.09118 100.022 8.74227C96.3707 12.3934 90.4422 12.3934 86.7911 8.74227L12.0782-65.9706C8.42714-69.6217 8.42714-75.5502 12.0782-79.2013C15.7293-82.8524 21.6578-82.8524 25.3089-79.2013Z" data-clipstroke-keyframes="0 0 0.0 0.5 0.6082697 0 1.0 0.10826972 0.0"/>
   <path class="monochrome-2 multicolor-2:tintColor hierarchical-2:primary SFSymbolsPreviewWireframe" d="M95.8717-0.338247C97.2322 1.02234 97.2322 3.23158 95.8717 4.59217C94.5111 5.95275 92.3018 5.95275 90.9412 4.59217L16.2283-70.1207C14.8678-71.4813 14.8678-73.6906 16.2283-75.0511C17.5889-76.4117 19.7982-76.4117 21.1588-75.0511Z" data-clipstroke-keyframes="0 0 0.0 0.5 0.5458696 0 1.0 0.04586959 0.0"/>
  </g>
  <g id="Regular-S" transform="matrix(1 0 0 1 1394.79 696)">
   <path class="monochrome-0 multicolor-0:tintColor hierarchical-0:secondary SFSymbolsPreviewWireframe" d="M26.709-36.084L30.0293-36.084C31.0059-36.084 31.6406-36.6699 31.6406-37.6465L31.6406-41.0156C31.6406-41.9922 31.0059-42.627 30.0293-42.627L26.709-42.627C25.7324-42.627 25.0977-41.9922 25.0977-41.0156L25.0977-37.6465C25.0977-36.6699 25.7324-36.084 26.709-36.084ZM37.4023-36.084L40.7227-36.084C41.6992-36.084 42.2852-36.6699 42.2852-37.6465L42.2852-41.0156C42.2852-41.9922 41.6992-42.627 40.7227-42.627L37.4023-42.627C36.4258-42.627 35.791-41.9922 35.791-41.0156L35.791-37.6465C35.791-36.6699 36.4258-36.084 37.4023-36.084ZM48.0469-36.084L51.3672-36.084C52.3438-36.084 52.9785-36.6699 52.9785-37.6465L52.9785-41.0156C52.9785-41.9922 52.3438-42.627 51.3672-42.627L48.0469-42.627C47.0703-42.627 46.4844-41.9922 46.4844-41.0156L46.4844-37.6465C46.4844-36.6699 47.0703-36.084 48.0469-36.084ZM58.7402-36.084L62.0605-36.084C63.0859-36.084 63.623-36.6699 63.623-37.6465L63.623-41.0156C63.623-41.9922 63.0859-42.627 62.0605-42.627L58.7402-42.627C57.7637-42.627 57.1289-41.9922 57.1289-41.0156L57.1289-37.6465C57.1289-36.6699 57.7637-36.084 58.7402-36.084ZM69.3848-36.084L72.7539-36.084C73.7305-36.084 74.3652-36.6699 74.3652-37.6465L74.3652-41.0156C74.3652-41.9922 73.7305-42.627 72.7539-42.627L69.3848-42.627C68.4082-42.627 67.8223-41.9922 67.8223-41.0156L67.8223-37.6465C67.8223-36.6699 68.4082-36.084 69.3848-36.084ZM80.127-36.084L83.4473-36.084C84.4238-36.084 85.0586-36.6699 85.0586-37.6465L85.0586-41.0156C85.0586-41.9922 84.4238-42.627 83.4473-42.627L80.127-42.627C79.1016-42.627 78.5156-41.9922 78.5156-41.0156L78.5156-37.6465C78.5156-36.6699 79.1016-36.084 80.127-36.084ZM26.709-25.4883L30.0293-25.4883C31.0059-25.4883 31.6406-26.123 31.6406-27.0996L31.6406-30.3711C31.6406-31.3477 31.0059-31.9824 30.0293-31.9824L26.709-31.9824C25.7324-31.9824 25.0977-31.3477 25.0977-30.3711L25.0977-27.0996C25.0977-26.123 25.7324-25.4883 26.709-25.4883ZM37.4023-25.4883L40.7227-25.4883C41.6992-25.4883 42.2852-26.123 42.2852-27.0996L42.2852-30.3711C42.2852-31.3477 41.6992-31.9824 40.7227-31.9824L37.4023-31.9824C36.4258-31.9824 35.791-31.3477 35.791-30.3711L35.791-27.0996C35.791-26.123 36.4258-25.4883 37.4023-25.4883ZM48.0469-25.4883L51.3672-25.4883C52.3438-25.4883 52.9785-26.123 52.9785-27.0996L52.9785-30.3711C52.9785-31.3477 52.3438-31.9824 51.3672-31.9824L48.0469-31.9824C47.0703-31.9824 46.4844-31.3477 46.4844-30.3711L46.4844-27.0996C46.4844-26.123 47.0703-25.4883 48.0469-25.4883ZM58.7402-25.4883L62.0605-25.4883C63.0859-25.4883 63.623-26.123 63.623-27.0996L63.623-30.3711C63.623-31.3477 63.0859-31.9824 62.0605-31.9824L58.7402-31.9824C57.7637-31.9824 57.1289-31.3477 57.1289-30.3711L57.1289-27.0996C57.1289-26.123 57.7637-25.4883 58.7402-25.4883ZM69.3848-25.4883L72.7539-25.4883C73.7305-25.4883 74.3652-26.123 74.3652-27.0996L74.3652-30.3711C74.3652-31.3477 73.7305-31.9824 72.7539-31.9824L69.3848-31.9824C68.4082-31.9824 67.8223-31.3477 67.8223-30.3711L67.8223-27.0996C67.8223-26.123 68.4082-25.4883 69.3848-25.4883ZM80.127-25.4883L83.4473-25.4883C84.4238-25.4883 85.0586-26.123 85.0586-27.0996L85.0586-30.3711C85.0586-31.3477 84.4238-31.9824 83.4473-31.9824L80.127-31.9824C79.1016-31.9824 78.5156-31.3477 78.5156-30.3711L78.5156-27.0996C78.5156-26.123 79.1016-25.4883 80.127-25.4883ZM26.709-14.8438L30.0293-14.8438C31.0059-14.8438 31.6406-15.4785 31.6406-16.4551L31.6406-19.7754C31.6406-20.752 31.0059-21.3867 30.0293-21.3867L26.709-21.3867C25.7324-21.3867 25.0977-20.752 25.0977-19.7754L25.0977-16.4551C25.0977-15.4785 25.7324-14.8438 26.709-14.8438ZM37.793-14.8438L72.3145-14.8438C73.6328-14.8438 74.3652-15.625 74.3652-16.8457L74.3652-19.3848C74.3652-20.6055 73.6328-21.3867 72.3145-21.3867L37.793-21.3867C36.5234-21.3867 35.791-20.6055 35.791-19.3848L35.791-16.8457C35.791-15.625 36.5234-14.8438 37.793-14.8438ZM80.127-14.8438L83.4473-14.8438C84.4238-14.8438 85.0586-15.4785 85.0586-16.4551L85.0586-19.7754C85.0586-20.752 84.4238-21.3867 83.4473-21.3867L80.127-21.3867C79.1016-21.3867 78.5156-20.752 78.5156-19.7754L78.5156-16.4551C78.5156-15.4785 79.1016-14.8438 80.127-14.8438ZM9.76562-11.9141C9.76562-3.71094 13.916 0.390625 22.2168 0.390625L87.8906 0.390625C96.2402 0.390625 100.342-3.71094 100.342-11.9141L100.342-58.4961C100.342-66.6992 96.2402-70.8008 87.8906-70.8008L22.2168-70.8008C13.916-70.8008 9.76562-66.6992 9.76562-58.4961ZM22.4609-57.1289C20.459-57.1289 18.8477-58.8867 18.8477-60.791C18.8477-62.6953 20.459-64.4043 22.4609-64.4043C24.4629-64.4043 26.123-62.6953 26.123-60.791C26.123-58.8867 24.4629-57.1289 22.4609-57.1289ZM34.0332-57.1289C31.9824-57.1289 30.3711-58.8867 30.3711-60.791C30.3711-62.6953 31.9824-64.4043 34.0332-64.4043C36.0352-64.4043 37.6465-62.6953 37.6465-60.791C37.6465-58.8867 36.0352-57.1289 34.0332-57.1289ZM45.5566-57.1289C43.5547-57.1289 41.8945-58.8867 41.8945-60.791C41.8945-62.6953 43.5547-64.4043 45.5566-64.4043C47.5586-64.4043 49.1699-62.6953 49.1699-60.791C49.1699-58.8867 47.5586-57.1289 45.5566-57.1289ZM16.7969-12.2559L16.7969-50.7812L93.3105-50.7812L93.3105-12.2559C93.3105-8.54492 91.3086-6.68945 87.793-6.68945L22.3145-6.68945C18.7988-6.68945 16.7969-8.54492 16.7969-12.2559Z"/>
   <path class="monochrome-1 multicolor-1:tintColor hierarchical-1:primary SFSymbolsPreviewWireframe" d="M96.1083-6.06714C99.3898-2.78573 99.3898 2.54245 96.1083 5.82386C92.8269 9.10527 87.4988 9.10527 84.2174 5.82386L14.0017-64.3918C10.7202-67.6733 10.7202-73.0014 14.0017-76.2828C17.2831-79.5643 22.6112-79.5643 25.8926-76.2828Z" data-clipstroke-keyframes="0 0 0.0 0.5 0.60452837 0 1.0 0.104528375 0.0"/>
   <path class="monochrome-2 multicolor-2:tintColor hierarchical-2:primary SFSymbolsPreviewWireframe" d="M92.6419-2.60066C94.0101-1.23245 94.0101 0.98917 92.6419 2.35738C91.2737 3.72558 89.052 3.72558 87.6838 2.35738L17.4681-67.8583C16.0999-69.2265 16.0999-71.4482 17.4681-72.8164C18.8363-74.1846 21.058-74.1846 22.4262-72.8164Z" data-clipstroke-keyframes="0 0 0.0 0.5 0.5487678 0 1.0 0.048767686 0.0"/>
  </g>
  <g id="Ultralight-S" transform="matrix(1 0 0 1 505.702 696)">
   <path class="monochrome-0 multicolor-0:tintColor hierarchical-0:secondary SFSymbolsPreviewWireframe" d="M25.5283-36.4927L28.3037-36.4927C29.3257-36.4927 29.8696-37.0332 29.8696-38.0552L29.8696-40.834C29.8696-41.856 29.3257-42.3999 28.3037-42.3999L25.5283-42.3999C24.5064-42.3999 23.9624-41.856 23.9624-40.834L23.9624-38.0552C23.9624-37.0332 24.5064-36.4927 25.5283-36.4927ZM36.4033-36.4927L39.1333-36.4927C40.1553-36.4927 40.6958-37.0332 40.6958-38.0552L40.6958-40.834C40.6958-41.856 40.1553-42.3999 39.1333-42.3999L36.4033-42.3999C35.3359-42.3999 34.8374-41.856 34.8374-40.834L34.8374-38.0552C34.8374-37.0332 35.3359-36.4927 36.4033-36.4927ZM47.2295-36.4927L49.9595-36.4927C50.9815-36.4927 51.5254-37.0332 51.5254-38.0552L51.5254-40.834C51.5254-41.856 50.9815-42.3999 49.9595-42.3999L47.2295-42.3999C46.2075-42.3999 45.667-41.856 45.667-40.834L45.667-38.0552C45.667-37.0332 46.2075-36.4927 47.2295-36.4927ZM58.0591-36.4927L60.7891-36.4927C61.8145-36.4927 62.3516-37.0332 62.3516-38.0552L62.3516-40.834C62.3516-41.856 61.8145-42.3999 60.7891-42.3999L58.0591-42.3999C57.0371-42.3999 56.4932-41.856 56.4932-40.834L56.4932-38.0552C56.4932-37.0332 57.0371-36.4927 58.0591-36.4927ZM68.8853-36.4927L71.6187-36.4927C72.6406-36.4927 73.1846-37.0332 73.1846-38.0552L73.1846-40.834C73.1846-41.856 72.6406-42.3999 71.6187-42.3999L68.8853-42.3999C67.8633-42.3999 67.3228-41.856 67.3228-40.834L67.3228-38.0552C67.3228-37.0332 67.8633-36.4927 68.8853-36.4927ZM79.7183-36.4927L82.4937-36.4927C83.5156-36.4927 84.0596-37.0332 84.0596-38.0552L84.0596-40.834C84.0596-41.856 83.5156-42.3999 82.4937-42.3999L79.7183-42.3999C78.6929-42.3999 78.1523-41.856 78.1523-40.834L78.1523-38.0552C78.1523-37.0332 78.6929-36.4927 79.7183-36.4927ZM25.5283-25.2158L28.3037-25.2158C29.3257-25.2158 29.8696-25.7598 29.8696-26.7817L29.8696-29.5537C29.8696-30.5757 29.3257-31.1196 28.3037-31.1196L25.5283-31.1196C24.5064-31.1196 23.9624-30.5757 23.9624-29.5537L23.9624-26.7817C23.9624-25.7598 24.5064-25.2158 25.5283-25.2158ZM36.4033-25.2158L39.1333-25.2158C40.1553-25.2158 40.6958-25.7598 40.6958-26.7817L40.6958-29.5537C40.6958-30.5757 40.1553-31.1196 39.1333-31.1196L36.4033-31.1196C35.3359-31.1196 34.8374-30.5757 34.8374-29.5537L34.8374-26.7817C34.8374-25.7598 35.3359-25.2158 36.4033-25.2158ZM47.2295-25.2158L49.9595-25.2158C50.9815-25.2158 51.5254-25.7598 51.5254-26.7817L51.5254-29.5537C51.5254-30.5757 50.9815-31.1196 49.9595-31.1196L47.2295-31.1196C46.2075-31.1196 45.667-30.5757 45.667-29.5537L45.667-26.7817C45.667-25.7598 46.2075-25.2158 47.2295-25.2158ZM58.0591-25.2158L60.7891-25.2158C61.8145-25.2158 62.3516-25.7598 62.3516-26.7817L62.3516-29.5537C62.3516-30.5757 61.8145-31.1196 60.7891-31.1196L58.0591-31.1196C57.0371-31.1196 56.4932-30.5757 56.4932-29.5537L56.4932-26.7817C56.4932-25.7598 57.0371-25.2158 58.0591-25.2158ZM68.8853-25.2158L71.6187-25.2158C72.6406-25.2158 73.1846-25.7598 73.1846-26.7817L73.1846-29.5537C73.1846-30.5757 72.6406-31.1196 71.6187-31.1196L68.8853-31.1196C67.8633-31.1196 67.3228-30.5757 67.3228-29.5537L67.3228-26.7817C67.3228-25.7598 67.8633-25.2158 68.8853-25.2158ZM79.7183-25.2158L82.4937-25.2158C83.5156-25.2158 84.0596-25.7598 84.0596-26.7817L84.0596-29.5537C84.0596-30.5757 83.5156-31.1196 82.4937-31.1196L79.7183-31.1196C78.6929-31.1196 78.1523-30.5757 78.1523-29.5537L78.1523-26.7817C78.1523-25.7598 78.6929-25.2158 79.7183-25.2158ZM25.5283-13.9356L28.3037-13.9356C29.3257-13.9356 29.8696-14.4795 29.8696-15.5015L29.8696-18.2315C29.8696-19.2534 29.3257-19.7974 28.3037-19.7974L25.5283-19.7974C24.5064-19.7974 23.9624-19.2534 23.9624-18.2315L23.9624-15.5015C23.9624-14.4795 24.5064-13.9356 25.5283-13.9356ZM36.3853-13.9356L71.6333-13.9356C72.6792-13.9356 73.1846-14.4443 73.1846-15.4834L73.1846-18.2041C73.1846-19.2432 72.6792-19.7974 71.6333-19.7974L36.3853-19.7974C35.3428-19.7974 34.8374-19.2432 34.8374-18.2041L34.8374-15.4834C34.8374-14.4443 35.3428-13.9356 36.3853-13.9356ZM79.7183-13.9356L82.4937-13.9356C83.5156-13.9356 84.0596-14.4795 84.0596-15.5015L84.0596-18.2315C84.0596-19.2534 83.5156-19.7974 82.4937-19.7974L79.7183-19.7974C78.6929-19.7974 78.1523-19.2534 78.1523-18.2315L78.1523-15.5015C78.1523-14.4795 78.6929-13.9356 79.7183-13.9356ZM9.76562-11.5508C9.76562-5.02782 13.2349-1.562 19.7647-1.562L88.2539-1.562C94.7871-1.562 98.2529-5.11864 98.2529-11.5508L98.2529-58.7686C98.2529-65.2007 94.7871-68.7573 88.2539-68.7573L19.7647-68.7573C13.2349-68.7573 9.76562-65.2915 9.76562-58.7686ZM19.3731-58.2642C18.0523-58.2642 16.9404-59.3862 16.9404-60.6548C16.9404-61.9688 18.0523-63.042 19.3731-63.042C20.6485-63.042 21.7637-61.9688 21.7637-60.6548C21.7637-59.3862 20.6485-58.2642 19.3731-58.2642ZM27.8121-58.2642C26.4878-58.2642 25.4214-59.3408 25.4214-60.6548C25.4214-61.9688 26.4878-63.042 27.8121-63.042C29.1329-63.042 30.1993-61.9688 30.1993-60.6548C30.1993-59.3408 29.1329-58.2642 27.8121-58.2642ZM36.293-58.3096C34.9722-58.3096 33.857-59.3408 33.857-60.6548C33.857-61.9688 34.9722-63.042 36.293-63.042C37.5684-63.042 38.6803-61.9688 38.6803-60.6548C38.6803-59.3408 37.5684-58.3096 36.293-58.3096ZM11.9834-11.6655L11.9834-52.5522L96.0351-52.5522L96.0351-11.6655C96.0351-6.45607 93.1704-3.78323 88.1562-3.78323L19.8623-3.78323C14.6665-3.78323 11.9834-6.45607 11.9834-11.6655Z"/>
   <path class="monochrome-1 multicolor-1:tintColor hierarchical-1:primary SFSymbolsPreviewWireframe" d="M91.6952-3.06064C93.2178-1.53808 93.2178 0.934172 91.6952 2.45673C90.1727 3.97929 87.7004 3.97929 86.1779 2.45673L16.3228-67.3983C14.8002-68.9209 14.8002-71.3932 16.3228-72.9157C17.8453-74.4383 20.3176-74.4383 21.8401-72.9157Z" data-clipstroke-keyframes="0 0 0.0 0.5 0.55392593 0 1.0 0.053925958 0.0"/>
   <path class="monochrome-2 multicolor-2:tintColor hierarchical-2:primary SFSymbolsPreviewWireframe" d="M89.6443-1.00975C90.035-0.619106 90.035 0.0152006 89.6443 0.405845C89.2537 0.796489 88.6194 0.796489 88.2287 0.405845L18.3737-69.4492C17.983-69.8399 17.983-70.4742 18.3737-70.8648C18.7643-71.2555 19.3986-71.2555 19.7893-70.8648Z" data-clipstroke-keyframes="0 0 0.0 0.5 0.5139301 0 1.0 0.013930082 0.0"/>
  </g>
 </g>
</svg>
